<svg width="392" height="121" viewBox="0 0 392 121" fill="none" xmlns="http://www.w3.org/2000/svg">
<path d="M1.5 10.1691V18.75C1.5 20.4069 2.84315 21.75 4.5 21.75H19.5C21.1569 21.75 22.5 20.4069 22.5 18.75V10.1691L13.5723 15.6631C12.6081 16.2564 11.3919 16.2564 10.4277 15.6631L1.5 10.1691Z" fill="#262626"/>
<path d="M22.5 8.40783V8.25C22.5 6.59315 21.1569 5.25 19.5 5.25H4.5C2.84315 5.25 1.5 6.59315 1.5 8.25V8.40783L11.2139 14.3856C11.696 14.6823 12.304 14.6823 12.7861 14.3856L22.5 8.40783Z" fill="#262626"/>
<path d="M31.44 20V6.32H33.15V11.846H33.258C33.342 11.702 33.48 11.504 33.672 11.252C33.876 11 34.164 10.778 34.536 10.586C34.908 10.382 35.376 10.28 35.94 10.28C36.636 10.28 37.23 10.442 37.722 10.766C38.214 11.078 38.586 11.504 38.838 12.044C39.102 12.584 39.234 13.19 39.234 13.862V20H37.524V13.97C37.524 13.334 37.344 12.806 36.984 12.386C36.636 11.966 36.126 11.756 35.454 11.756C34.914 11.756 34.476 11.894 34.14 12.17C33.804 12.434 33.552 12.788 33.384 13.232C33.228 13.664 33.15 14.126 33.15 14.618V20H31.44ZM46.0921 20.18C45.3121 20.18 44.6341 20.042 44.0581 19.766C43.4941 19.478 43.0261 19.094 42.6541 18.614C42.2941 18.134 42.0241 17.606 41.8441 17.03C41.6641 16.442 41.5741 15.842 41.5741 15.23C41.5741 14.63 41.6581 14.036 41.8261 13.448C42.0061 12.86 42.2761 12.326 42.6361 11.846C43.0081 11.366 43.4701 10.988 44.0221 10.712C44.5861 10.424 45.2521 10.28 46.0201 10.28C46.8361 10.28 47.5561 10.466 48.1801 10.838C48.8041 11.21 49.2961 11.762 49.6561 12.494C50.0161 13.226 50.1961 14.144 50.1961 15.248V15.752H43.3021C43.3381 16.292 43.4641 16.79 43.6801 17.246C43.9081 17.69 44.2261 18.05 44.6341 18.326C45.0421 18.59 45.5281 18.722 46.0921 18.722C46.5841 18.722 46.9801 18.644 47.2801 18.488C47.5921 18.32 47.8381 18.128 48.0181 17.912C48.1981 17.696 48.3181 17.51 48.3781 17.354C48.4501 17.186 48.4861 17.102 48.4861 17.102H50.0881C50.0881 17.102 50.0581 17.21 49.9981 17.426C49.9381 17.63 49.8301 17.882 49.6741 18.182C49.5181 18.482 49.2901 18.788 48.9901 19.1C48.6901 19.4 48.3061 19.658 47.8381 19.874C47.3701 20.078 46.7881 20.18 46.0921 20.18ZM43.3201 14.42H48.5221C48.4981 13.796 48.3661 13.292 48.1261 12.908C47.8861 12.512 47.5801 12.218 47.2081 12.026C46.8361 11.834 46.4401 11.738 46.0201 11.738C45.2641 11.738 44.6461 11.984 44.1661 12.476C43.6861 12.956 43.4041 13.604 43.3201 14.42ZM52.7095 20L52.7275 6.32H54.4195V20H52.7095ZM57.2974 20L57.3154 6.32H59.0074V20H57.2974ZM66.2233 20.18C65.2033 20.18 64.3453 19.946 63.6493 19.478C62.9533 18.998 62.4253 18.38 62.0653 17.624C61.7053 16.868 61.5253 16.07 61.5253 15.23C61.5253 14.378 61.7053 13.58 62.0653 12.836C62.4253 12.08 62.9533 11.468 63.6493 11C64.3453 10.52 65.2033 10.28 66.2233 10.28C67.2433 10.28 68.1013 10.52 68.7973 11C69.4933 11.468 70.0213 12.08 70.3813 12.836C70.7413 13.58 70.9213 14.378 70.9213 15.23C70.9213 16.07 70.7413 16.868 70.3813 17.624C70.0213 18.38 69.4933 18.998 68.7973 19.478C68.1013 19.946 67.2433 20.18 66.2233 20.18ZM66.2233 18.686C66.8713 18.686 67.4113 18.524 67.8433 18.2C68.2873 17.864 68.6173 17.432 68.8333 16.904C69.0613 16.376 69.1753 15.818 69.1753 15.23C69.1753 14.63 69.0613 14.072 68.8333 13.556C68.6173 13.028 68.2873 12.602 67.8433 12.278C67.4113 11.942 66.8713 11.774 66.2233 11.774C65.5873 11.774 65.0473 11.942 64.6033 12.278C64.1593 12.602 63.8233 13.028 63.5953 13.556C63.3793 14.072 63.2713 14.63 63.2713 15.23C63.2713 15.818 63.3793 16.376 63.5953 16.904C63.8233 17.432 64.1593 17.864 64.6033 18.2C65.0473 18.524 65.5873 18.686 66.2233 18.686ZM81.2641 22.484C79.8721 22.484 78.6541 22.256 77.6101 21.8C76.5781 21.356 75.7201 20.756 75.0361 20C74.3521 19.244 73.8361 18.392 73.4881 17.444C73.1521 16.496 72.9841 15.53 72.9841 14.546C72.9841 13.538 73.1521 12.56 73.4881 11.612C73.8361 10.652 74.3461 9.788 75.0181 9.02C75.7021 8.252 76.5481 7.64 77.5561 7.184C78.5761 6.728 79.7521 6.5 81.0841 6.5C82.1281 6.5 83.1301 6.668 84.0901 7.004C85.0501 7.34 85.9021 7.832 86.6461 8.48C87.4021 9.128 87.9961 9.932 88.4281 10.892C88.8721 11.84 89.0941 12.926 89.0941 14.15C89.0941 14.966 88.9681 15.71 88.7161 16.382C88.4761 17.042 88.1161 17.57 87.6361 17.966C87.1681 18.35 86.5861 18.542 85.8901 18.542C85.2301 18.542 84.6721 18.392 84.2161 18.092C83.7601 17.78 83.4361 17.366 83.2441 16.85H83.1361C83.0641 17.018 82.9201 17.24 82.7041 17.516C82.5001 17.78 82.2061 18.02 81.8221 18.236C81.4381 18.44 80.9521 18.542 80.3641 18.542C79.6201 18.542 78.9961 18.35 78.4921 17.966C77.9881 17.57 77.6101 17.072 77.3581 16.472C77.1061 15.86 76.9801 15.224 76.9801 14.564C76.9801 13.904 77.1001 13.274 77.3401 12.674C77.5921 12.074 77.9641 11.582 78.4561 11.198C78.9601 10.814 79.5841 10.622 80.3281 10.622C80.9281 10.622 81.4321 10.748 81.8401 11C82.2481 11.24 82.5601 11.528 82.7761 11.864H82.8661V10.766H84.5041V14.204C84.5041 14.384 84.5101 14.636 84.5221 14.96C84.5461 15.272 84.6001 15.602 84.6841 15.95C84.7681 16.286 84.9121 16.574 85.1161 16.814C85.3201 17.042 85.6021 17.156 85.9621 17.156C86.4901 17.156 86.8801 16.898 87.1321 16.382C87.3841 15.866 87.5101 15.122 87.5101 14.15C87.5101 13.142 87.3361 12.254 86.9881 11.486C86.6401 10.706 86.1661 10.052 85.5661 9.524C84.9661 8.996 84.2821 8.6 83.5141 8.336C82.7461 8.072 81.9361 7.94 81.0841 7.94C80.0161 7.94 79.0741 8.126 78.2581 8.498C77.4541 8.87 76.7761 9.374 76.2241 10.01C75.6841 10.634 75.2761 11.336 75.0001 12.116C74.7241 12.896 74.5861 13.694 74.5861 14.51C74.5861 15.326 74.7241 16.124 75.0001 16.904C75.2761 17.672 75.6901 18.368 76.2421 18.992C76.7941 19.604 77.4841 20.09 78.3121 20.45C79.1521 20.822 80.1301 21.008 81.2461 21.008C82.0861 21.008 82.8241 20.924 83.4601 20.756C84.0961 20.588 84.5941 20.42 84.9541 20.252C85.3141 20.096 85.4941 20.018 85.4941 20.018L86.0521 21.368C86.0521 21.368 85.8601 21.458 85.4761 21.638C85.1041 21.83 84.5641 22.016 83.8561 22.196C83.1481 22.388 82.2841 22.484 81.2641 22.484ZM80.7061 17.174C81.1741 17.174 81.5581 17.048 81.8581 16.796C82.1581 16.544 82.3801 16.22 82.5241 15.824C82.6801 15.416 82.7581 15.002 82.7581 14.582C82.7581 14.162 82.6801 13.76 82.5241 13.376C82.3801 12.98 82.1581 12.656 81.8581 12.404C81.5581 12.14 81.1741 12.008 80.7061 12.008C80.2501 12.008 79.8661 12.134 79.5541 12.386C79.2541 12.638 79.0261 12.962 78.8701 13.358C78.7261 13.742 78.6541 14.15 78.6541 14.582C78.6541 15.014 78.7261 15.428 78.8701 15.824C79.0261 16.22 79.2541 16.544 79.5541 16.796C79.8661 17.048 80.2501 17.174 80.7061 17.174ZM94.834 20.18C94.102 20.18 93.496 20.078 93.016 19.874C92.548 19.67 92.176 19.418 91.9 19.118C91.624 18.806 91.42 18.5 91.288 18.2C91.156 17.888 91.072 17.63 91.036 17.426C91 17.222 90.982 17.12 90.982 17.12H92.71C92.71 17.12 92.728 17.204 92.764 17.372C92.812 17.528 92.902 17.714 93.034 17.93C93.178 18.134 93.394 18.32 93.682 18.488C93.982 18.644 94.378 18.722 94.87 18.722C95.434 18.722 95.872 18.59 96.184 18.326C96.496 18.05 96.652 17.714 96.652 17.318C96.652 16.97 96.526 16.694 96.274 16.49C96.034 16.286 95.686 16.13 95.23 16.022L93.934 15.716C93.454 15.596 93.004 15.434 92.584 15.23C92.164 15.026 91.822 14.75 91.558 14.402C91.306 14.042 91.18 13.598 91.18 13.07C91.18 12.254 91.486 11.588 92.098 11.072C92.71 10.544 93.508 10.28 94.492 10.28C95.152 10.28 95.698 10.376 96.13 10.568C96.562 10.748 96.904 10.976 97.156 11.252C97.42 11.528 97.612 11.804 97.732 12.08C97.864 12.356 97.948 12.59 97.984 12.782C98.02 12.962 98.038 13.052 98.038 13.052H96.382C96.382 13.052 96.364 12.986 96.328 12.854C96.292 12.71 96.208 12.554 96.076 12.386C95.956 12.206 95.77 12.05 95.518 11.918C95.266 11.774 94.93 11.702 94.51 11.702C93.934 11.702 93.514 11.834 93.25 12.098C92.986 12.362 92.854 12.65 92.854 12.962C92.854 13.262 92.974 13.508 93.214 13.7C93.466 13.88 93.79 14.018 94.186 14.114L95.5 14.42C96.316 14.612 96.988 14.93 97.516 15.374C98.056 15.806 98.326 16.43 98.326 17.246C98.326 17.774 98.188 18.266 97.912 18.722C97.636 19.166 97.24 19.52 96.724 19.784C96.208 20.048 95.578 20.18 94.834 20.18ZM100.663 20V6.32H102.373V14.276L106.171 10.46H108.403L104.011 14.798L108.493 20H106.315L102.373 15.41V20H100.663ZM111.583 8.642C111.259 8.642 110.989 8.534 110.773 8.318C110.569 8.102 110.467 7.844 110.467 7.544C110.467 7.232 110.569 6.968 110.773 6.752C110.989 6.536 111.259 6.428 111.583 6.428C111.895 6.428 112.159 6.536 112.375 6.752C112.591 6.968 112.699 7.232 112.699 7.544C112.699 7.844 112.591 8.102 112.375 8.318C112.159 8.534 111.895 8.642 111.583 8.642ZM110.737 20V10.46H112.447V20H110.737ZM115.393 20L115.411 6.32H117.103V20H115.393ZM119.981 20L119.999 6.32H121.691V20H119.981ZM129.465 20.18C128.865 20.18 128.361 20.084 127.953 19.892C127.545 19.7 127.215 19.472 126.963 19.208C126.723 18.944 126.531 18.704 126.387 18.488H126.279V20H124.569V6.32H126.279V11.972H126.387C126.531 11.744 126.723 11.498 126.963 11.234C127.215 10.97 127.545 10.748 127.953 10.568C128.361 10.376 128.865 10.28 129.465 10.28C130.185 10.28 130.815 10.424 131.355 10.712C131.895 10.988 132.345 11.366 132.705 11.846C133.065 12.314 133.335 12.842 133.515 13.43C133.695 14.018 133.785 14.618 133.785 15.23C133.785 15.842 133.695 16.442 133.515 17.03C133.335 17.618 133.065 18.152 132.705 18.632C132.345 19.1 131.895 19.478 131.355 19.766C130.815 20.042 130.185 20.18 129.465 20.18ZM129.177 18.722C129.825 18.722 130.359 18.554 130.779 18.218C131.211 17.87 131.529 17.432 131.733 16.904C131.949 16.364 132.057 15.806 132.057 15.23C132.057 14.642 131.949 14.084 131.733 13.556C131.529 13.028 131.211 12.596 130.779 12.26C130.359 11.912 129.825 11.738 129.177 11.738C128.541 11.738 128.007 11.912 127.575 12.26C127.155 12.596 126.837 13.028 126.621 13.556C126.417 14.084 126.315 14.642 126.315 15.23C126.315 15.806 126.417 16.364 126.621 16.904C126.837 17.432 127.155 17.87 127.575 18.218C128.007 18.554 128.541 18.722 129.177 18.722ZM136.131 20V10.46H137.841V11.648H137.913C138.117 11.288 138.417 10.97 138.813 10.694C139.209 10.418 139.767 10.28 140.487 10.28C140.691 10.28 140.877 10.292 141.045 10.316C141.213 10.328 141.297 10.334 141.297 10.334V11.972C141.297 11.972 141.201 11.966 141.009 11.954C140.829 11.93 140.637 11.918 140.433 11.918C139.605 11.918 138.963 12.158 138.507 12.638C138.063 13.106 137.841 13.874 137.841 14.942V20H136.131ZM144.647 8.642C144.323 8.642 144.053 8.534 143.837 8.318C143.633 8.102 143.531 7.844 143.531 7.544C143.531 7.232 143.633 6.968 143.837 6.752C144.053 6.536 144.323 6.428 144.647 6.428C144.959 6.428 145.223 6.536 145.439 6.752C145.655 6.968 145.763 7.232 145.763 7.544C145.763 7.844 145.655 8.102 145.439 8.318C145.223 8.534 144.959 8.642 144.647 8.642ZM143.801 20V10.46H145.511V20H143.801ZM152.418 20.18C151.698 20.18 151.068 20.042 150.528 19.766C149.988 19.478 149.538 19.1 149.178 18.632C148.818 18.152 148.548 17.618 148.368 17.03C148.188 16.442 148.098 15.842 148.098 15.23C148.098 14.618 148.188 14.018 148.368 13.43C148.548 12.842 148.818 12.314 149.178 11.846C149.538 11.366 149.988 10.988 150.528 10.712C151.068 10.424 151.698 10.28 152.418 10.28C153.018 10.28 153.522 10.376 153.93 10.568C154.338 10.76 154.668 10.988 154.92 11.252C155.172 11.504 155.364 11.744 155.496 11.972H155.604V6.32H157.314V20H155.604V18.488H155.496C155.364 18.716 155.172 18.962 154.92 19.226C154.668 19.49 154.338 19.718 153.93 19.91C153.522 20.09 153.018 20.18 152.418 20.18ZM152.706 18.722C153.342 18.722 153.87 18.554 154.29 18.218C154.722 17.87 155.04 17.432 155.244 16.904C155.46 16.364 155.568 15.806 155.568 15.23C155.568 14.642 155.46 14.084 155.244 13.556C155.04 13.028 154.722 12.596 154.29 12.26C153.87 11.912 153.342 11.738 152.706 11.738C152.07 11.738 151.536 11.912 151.104 12.26C150.672 12.596 150.348 13.028 150.132 13.556C149.928 14.084 149.826 14.642 149.826 15.23C149.826 15.806 149.928 16.364 150.132 16.904C150.348 17.432 150.672 17.87 151.104 18.218C151.536 18.554 152.07 18.722 152.706 18.722ZM164.61 23.78C163.818 23.78 163.158 23.672 162.63 23.456C162.102 23.252 161.676 22.988 161.352 22.664C161.04 22.352 160.806 22.04 160.65 21.728C160.494 21.416 160.392 21.152 160.344 20.936C160.296 20.732 160.272 20.63 160.272 20.63H161.982C161.982 20.63 162.012 20.714 162.072 20.882C162.132 21.05 162.246 21.242 162.414 21.458C162.594 21.674 162.858 21.866 163.206 22.034C163.554 22.202 164.022 22.286 164.61 22.286C165.306 22.286 165.852 22.148 166.248 21.872C166.644 21.608 166.926 21.26 167.094 20.828C167.274 20.396 167.364 19.94 167.364 19.46V18.362H167.274C167.154 18.566 166.962 18.8 166.698 19.064C166.446 19.316 166.11 19.538 165.69 19.73C165.27 19.91 164.754 20 164.142 20C163.422 20 162.792 19.862 162.252 19.586C161.712 19.31 161.262 18.938 160.902 18.47C160.554 18.002 160.29 17.48 160.11 16.904C159.93 16.328 159.84 15.74 159.84 15.14C159.84 14.54 159.93 13.952 160.11 13.376C160.29 12.8 160.554 12.278 160.902 11.81C161.262 11.342 161.712 10.97 162.252 10.694C162.792 10.418 163.422 10.28 164.142 10.28C164.754 10.28 165.27 10.376 165.69 10.568C166.11 10.748 166.446 10.964 166.698 11.216C166.962 11.468 167.154 11.702 167.274 11.918H167.364V10.46H169.074V19.442C169.074 20.774 168.684 21.83 167.904 22.61C167.136 23.39 166.038 23.78 164.61 23.78ZM164.466 18.542C165.102 18.542 165.63 18.38 166.05 18.056C166.482 17.72 166.8 17.294 167.004 16.778C167.22 16.262 167.328 15.716 167.328 15.14C167.328 14.564 167.22 14.018 167.004 13.502C166.8 12.974 166.482 12.548 166.05 12.224C165.63 11.9 165.102 11.738 164.466 11.738C163.83 11.738 163.296 11.9 162.864 12.224C162.432 12.548 162.108 12.974 161.892 13.502C161.688 14.018 161.586 14.564 161.586 15.14C161.586 15.716 161.688 16.262 161.892 16.778C162.108 17.294 162.432 17.72 162.864 18.056C163.296 18.38 163.83 18.542 164.466 18.542ZM175.573 20.18C174.793 20.18 174.115 20.042 173.539 19.766C172.975 19.478 172.507 19.094 172.135 18.614C171.775 18.134 171.505 17.606 171.325 17.03C171.145 16.442 171.055 15.842 171.055 15.23C171.055 14.63 171.139 14.036 171.307 13.448C171.487 12.86 171.757 12.326 172.117 11.846C172.489 11.366 172.951 10.988 173.503 10.712C174.067 10.424 174.733 10.28 175.501 10.28C176.317 10.28 177.037 10.466 177.661 10.838C178.285 11.21 178.777 11.762 179.137 12.494C179.497 13.226 179.677 14.144 179.677 15.248V15.752H172.783C172.819 16.292 172.945 16.79 173.161 17.246C173.389 17.69 173.707 18.05 174.115 18.326C174.523 18.59 175.009 18.722 175.573 18.722C176.065 18.722 176.461 18.644 176.761 18.488C177.073 18.32 177.319 18.128 177.499 17.912C177.679 17.696 177.799 17.51 177.859 17.354C177.931 17.186 177.967 17.102 177.967 17.102H179.569C179.569 17.102 179.539 17.21 179.479 17.426C179.419 17.63 179.311 17.882 179.155 18.182C178.999 18.482 178.771 18.788 178.471 19.1C178.171 19.4 177.787 19.658 177.319 19.874C176.851 20.078 176.269 20.18 175.573 20.18ZM172.801 14.42H178.003C177.979 13.796 177.847 13.292 177.607 12.908C177.367 12.512 177.061 12.218 176.689 12.026C176.317 11.834 175.921 11.738 175.501 11.738C174.745 11.738 174.127 11.984 173.647 12.476C173.167 12.956 172.885 13.604 172.801 14.42ZM183.324 20.18C182.988 20.18 182.706 20.066 182.478 19.838C182.262 19.598 182.154 19.322 182.154 19.01C182.154 18.686 182.262 18.41 182.478 18.182C182.706 17.954 182.988 17.84 183.324 17.84C183.66 17.84 183.936 17.954 184.152 18.182C184.38 18.41 184.494 18.686 184.494 19.01C184.494 19.334 184.38 19.61 184.152 19.838C183.936 20.066 183.66 20.18 183.324 20.18ZM191.678 20.18C190.898 20.18 190.214 20.042 189.626 19.766C189.038 19.478 188.546 19.1 188.15 18.632C187.766 18.152 187.472 17.618 187.268 17.03C187.076 16.442 186.98 15.842 186.98 15.23C186.98 14.618 187.076 14.024 187.268 13.448C187.46 12.86 187.748 12.326 188.132 11.846C188.528 11.366 189.02 10.988 189.608 10.712C190.196 10.424 190.886 10.28 191.678 10.28C192.446 10.28 193.082 10.394 193.586 10.622C194.09 10.85 194.492 11.138 194.792 11.486C195.104 11.822 195.332 12.164 195.476 12.512C195.632 12.848 195.734 13.13 195.782 13.358C195.83 13.586 195.854 13.7 195.854 13.7H194.198C194.198 13.7 194.168 13.604 194.108 13.412C194.048 13.208 193.934 12.98 193.766 12.728C193.598 12.476 193.346 12.254 193.01 12.062C192.674 11.858 192.23 11.756 191.678 11.756C191.018 11.756 190.46 11.924 190.004 12.26C189.56 12.584 189.224 13.01 188.996 13.538C188.78 14.066 188.672 14.63 188.672 15.23C188.672 15.83 188.78 16.394 188.996 16.922C189.224 17.45 189.56 17.882 190.004 18.218C190.46 18.542 191.018 18.704 191.678 18.704C192.23 18.704 192.674 18.608 193.01 18.416C193.346 18.212 193.598 17.984 193.766 17.732C193.934 17.48 194.048 17.258 194.108 17.066C194.168 16.862 194.198 16.76 194.198 16.76H195.854C195.854 16.76 195.83 16.874 195.782 17.102C195.734 17.33 195.632 17.618 195.476 17.966C195.332 18.302 195.104 18.644 194.792 18.992C194.492 19.328 194.09 19.61 193.586 19.838C193.082 20.066 192.446 20.18 191.678 20.18ZM202.717 20.18C201.697 20.18 200.839 19.946 200.143 19.478C199.447 18.998 198.919 18.38 198.559 17.624C198.199 16.868 198.019 16.07 198.019 15.23C198.019 14.378 198.199 13.58 198.559 12.836C198.919 12.08 199.447 11.468 200.143 11C200.839 10.52 201.697 10.28 202.717 10.28C203.737 10.28 204.595 10.52 205.291 11C205.987 11.468 206.515 12.08 206.875 12.836C207.235 13.58 207.415 14.378 207.415 15.23C207.415 16.07 207.235 16.868 206.875 17.624C206.515 18.38 205.987 18.998 205.291 19.478C204.595 19.946 203.737 20.18 202.717 20.18ZM202.717 18.686C203.365 18.686 203.905 18.524 204.337 18.2C204.781 17.864 205.111 17.432 205.327 16.904C205.555 16.376 205.669 15.818 205.669 15.23C205.669 14.63 205.555 14.072 205.327 13.556C205.111 13.028 204.781 12.602 204.337 12.278C203.905 11.942 203.365 11.774 202.717 11.774C202.081 11.774 201.541 11.942 201.097 12.278C200.653 12.602 200.317 13.028 200.089 13.556C199.873 14.072 199.765 14.63 199.765 15.23C199.765 15.818 199.873 16.376 200.089 16.904C200.317 17.432 200.653 17.864 201.097 18.2C201.541 18.524 202.081 18.686 202.717 18.686ZM209.748 20V10.46H211.458V11.846H211.53C211.626 11.666 211.776 11.456 211.98 11.216C212.184 10.964 212.46 10.748 212.808 10.568C213.168 10.376 213.618 10.28 214.158 10.28C214.866 10.28 215.46 10.454 215.94 10.802C216.432 11.138 216.798 11.594 217.038 12.17H217.056C217.32 11.642 217.692 11.198 218.172 10.838C218.664 10.466 219.3 10.28 220.08 10.28C221.112 10.28 221.904 10.634 222.456 11.342C223.02 12.038 223.302 12.938 223.302 14.042V20H221.592V14.132C221.592 13.424 221.424 12.854 221.088 12.422C220.752 11.978 220.266 11.756 219.63 11.756C219.078 11.756 218.634 11.906 218.298 12.206C217.974 12.506 217.74 12.878 217.596 13.322C217.452 13.766 217.38 14.21 217.38 14.654V20H215.67V14.132C215.67 13.424 215.502 12.854 215.166 12.422C214.842 11.978 214.356 11.756 213.708 11.756C213.156 11.756 212.712 11.906 212.376 12.206C212.052 12.506 211.818 12.884 211.674 13.34C211.53 13.784 211.458 14.222 211.458 14.654V20H209.748Z" fill="#262626"/>
<path fill-rule="evenodd" clip-rule="evenodd" d="M1.5 53C1.5 51.3431 2.84315 50 4.5 50H5.87163C6.732 50 7.48197 50.5856 7.69064 51.4202L8.79644 55.8434C8.97941 56.5753 8.70594 57.3455 8.10242 57.7982L6.8088 58.7684C6.67447 58.8691 6.64527 59.0167 6.683 59.1197C7.81851 62.2195 10.2805 64.6815 13.3803 65.817C13.4833 65.8547 13.6309 65.8255 13.7316 65.6912L14.7018 64.3976C15.1545 63.7941 15.9247 63.5206 16.6566 63.7036L21.0798 64.8094C21.9144 65.018 22.5 65.768 22.5 66.6284V68C22.5 69.6569 21.1569 71 19.5 71H17.25C8.55151 71 1.5 63.9485 1.5 55.25V53Z" fill="#262626"/>
<path d="M34.752 64.714V62.086H32.124V60.646H34.752V58.018H36.192V60.646H38.82V62.086H36.192V64.714H34.752ZM46.8552 53.5C47.7072 53.5 48.4452 53.662 49.0692 53.986C49.7052 54.31 50.2272 54.76 50.6352 55.336C51.0432 55.9 51.3432 56.548 51.5352 57.28C51.7392 58 51.8412 58.768 51.8412 59.584C51.8412 60.244 51.7692 60.928 51.6252 61.636C51.4812 62.344 51.2532 63.028 50.9412 63.688C50.6412 64.348 50.2332 64.942 49.7172 65.47C49.2132 65.986 48.5952 66.4 47.8632 66.712C47.1432 67.024 46.2972 67.18 45.3252 67.18C44.9532 67.18 44.6052 67.156 44.2812 67.108C43.9572 67.06 43.6992 67.018 43.5072 66.982C43.3152 66.934 43.2192 66.91 43.2192 66.91V65.29C43.2192 65.29 43.3272 65.314 43.5432 65.362C43.7592 65.398 44.0292 65.44 44.3532 65.488C44.6892 65.536 45.0252 65.56 45.3612 65.56C46.0932 65.56 46.7172 65.452 47.2332 65.236C47.7612 65.008 48.1992 64.714 48.5472 64.354C48.9072 63.982 49.1892 63.586 49.3932 63.166C49.6092 62.734 49.7652 62.314 49.8612 61.906C49.9572 61.486 50.0112 61.126 50.0232 60.826C49.9392 60.97 49.7712 61.168 49.5192 61.42C49.2672 61.672 48.9132 61.9 48.4572 62.104C48.0012 62.308 47.4192 62.41 46.7112 62.41C45.7392 62.41 44.9232 62.2 44.2632 61.78C43.6152 61.348 43.1232 60.796 42.7872 60.124C42.4632 59.44 42.3012 58.732 42.3012 58C42.3012 57.244 42.4692 56.524 42.8052 55.84C43.1412 55.156 43.6452 54.598 44.3172 54.166C45.0012 53.722 45.8472 53.5 46.8552 53.5ZM46.8912 55.012C46.4112 55.012 45.9492 55.12 45.5052 55.336C45.0732 55.552 44.7132 55.876 44.4252 56.308C44.1492 56.74 44.0112 57.286 44.0112 57.946C44.0112 58.606 44.1492 59.158 44.4252 59.602C44.7132 60.034 45.0732 60.358 45.5052 60.574C45.9492 60.79 46.4112 60.898 46.8912 60.898C47.3712 60.898 47.8272 60.79 48.2592 60.574C48.7032 60.358 49.0632 60.034 49.3392 59.602C49.6272 59.158 49.7712 58.606 49.7712 57.946C49.7712 57.286 49.6272 56.74 49.3392 56.308C49.0632 55.876 48.7032 55.552 48.2592 55.336C47.8272 55.12 47.3712 55.012 46.8912 55.012ZM58.1355 53.68V67H56.4075V56.668L53.9055 56.686V55.678L54.3555 55.534C54.9915 55.33 55.5015 55.108 55.8855 54.868C56.2815 54.628 56.6475 54.298 56.9835 53.878L57.1455 53.68H58.1355ZM70.1638 53.5C71.0158 53.5 71.7538 53.662 72.3778 53.986C73.0138 54.31 73.5358 54.76 73.9438 55.336C74.3518 55.9 74.6518 56.548 74.8438 57.28C75.0478 58 75.1498 58.768 75.1498 59.584C75.1498 60.244 75.0778 60.928 74.9338 61.636C74.7898 62.344 74.5618 63.028 74.2498 63.688C73.9498 64.348 73.5418 64.942 73.0258 65.47C72.5218 65.986 71.9038 66.4 71.1718 66.712C70.4518 67.024 69.6058 67.18 68.6338 67.18C68.2618 67.18 67.9138 67.156 67.5898 67.108C67.2658 67.06 67.0078 67.018 66.8158 66.982C66.6238 66.934 66.5278 66.91 66.5278 66.91V65.29C66.5278 65.29 66.6358 65.314 66.8518 65.362C67.0678 65.398 67.3378 65.44 67.6618 65.488C67.9978 65.536 68.3338 65.56 68.6698 65.56C69.4018 65.56 70.0258 65.452 70.5418 65.236C71.0698 65.008 71.5078 64.714 71.8558 64.354C72.2158 63.982 72.4978 63.586 72.7018 63.166C72.9178 62.734 73.0738 62.314 73.1698 61.906C73.2658 61.486 73.3198 61.126 73.3318 60.826C73.2478 60.97 73.0798 61.168 72.8278 61.42C72.5758 61.672 72.2218 61.9 71.7658 62.104C71.3098 62.308 70.7278 62.41 70.0198 62.41C69.0478 62.41 68.2318 62.2 67.5718 61.78C66.9238 61.348 66.4318 60.796 66.0958 60.124C65.7718 59.44 65.6098 58.732 65.6098 58C65.6098 57.244 65.7778 56.524 66.1138 55.84C66.4498 55.156 66.9538 54.598 67.6258 54.166C68.3098 53.722 69.1558 53.5 70.1638 53.5ZM70.1998 55.012C69.7198 55.012 69.2578 55.12 68.8138 55.336C68.3818 55.552 68.0218 55.876 67.7338 56.308C67.4578 56.74 67.3198 57.286 67.3198 57.946C67.3198 58.606 67.4578 59.158 67.7338 59.602C68.0218 60.034 68.3818 60.358 68.8138 60.574C69.2578 60.79 69.7198 60.898 70.1998 60.898C70.6798 60.898 71.1358 60.79 71.5678 60.574C72.0118 60.358 72.3718 60.034 72.6478 59.602C72.9358 59.158 73.0798 58.606 73.0798 57.946C73.0798 57.286 72.9358 56.74 72.6478 56.308C72.3718 55.876 72.0118 55.552 71.5678 55.336C71.1358 55.12 70.6798 55.012 70.1998 55.012ZM81.4441 53.68V67H79.7161V56.668L77.2141 56.686V55.678L77.6641 55.534C78.3001 55.33 78.8101 55.108 79.1941 54.868C79.5901 54.628 79.9561 54.298 80.2921 53.878L80.4541 53.68H81.4441ZM89.1259 67.18C88.1899 67.18 87.3739 67.012 86.6779 66.676C85.9939 66.328 85.4599 65.866 85.0759 65.29C84.6919 64.702 84.4999 64.042 84.4999 63.31C84.4999 62.662 84.6139 62.128 84.8419 61.708C85.0699 61.276 85.3339 60.934 85.6339 60.682C85.9459 60.418 86.2159 60.232 86.4439 60.124C86.6719 60.016 86.7859 59.962 86.7859 59.962V59.872C86.7859 59.872 86.6899 59.83 86.4979 59.746C86.3059 59.65 86.0779 59.494 85.8139 59.278C85.5619 59.062 85.3399 58.774 85.1479 58.414C84.9559 58.054 84.8599 57.61 84.8599 57.082C84.8599 56.398 85.0339 55.786 85.3819 55.246C85.7299 54.706 86.2219 54.28 86.8579 53.968C87.5059 53.656 88.2619 53.5 89.1259 53.5C89.9899 53.5 90.7399 53.656 91.3759 53.968C92.0239 54.28 92.5219 54.706 92.8699 55.246C93.2179 55.786 93.3919 56.398 93.3919 57.082C93.3919 57.61 93.2959 58.054 93.1039 58.414C92.9119 58.774 92.6839 59.062 92.4199 59.278C92.1679 59.494 91.9459 59.65 91.7539 59.746C91.5619 59.83 91.4659 59.872 91.4659 59.872V59.962C91.4659 59.962 91.5799 60.016 91.8079 60.124C92.0359 60.232 92.2999 60.418 92.5999 60.682C92.9119 60.934 93.1819 61.276 93.4099 61.708C93.6379 62.128 93.7519 62.662 93.7519 63.31C93.7519 64.042 93.5599 64.702 93.1759 65.29C92.7919 65.866 92.2519 66.328 91.5559 66.676C90.8719 67.012 90.0619 67.18 89.1259 67.18ZM89.1259 59.278C89.7019 59.278 90.1819 59.17 90.5659 58.954C90.9499 58.738 91.2379 58.462 91.4299 58.126C91.6219 57.79 91.7179 57.448 91.7179 57.1C91.7179 56.728 91.6219 56.374 91.4299 56.038C91.2379 55.702 90.9499 55.432 90.5659 55.228C90.1819 55.012 89.7019 54.904 89.1259 54.904C88.5619 54.904 88.0819 55.012 87.6859 55.228C87.3019 55.432 87.0139 55.702 86.8219 56.038C86.6299 56.374 86.5339 56.728 86.5339 57.1C86.5339 57.448 86.6299 57.79 86.8219 58.126C87.0139 58.462 87.3019 58.738 87.6859 58.954C88.0819 59.17 88.5619 59.278 89.1259 59.278ZM89.1259 65.758C89.7739 65.758 90.3139 65.632 90.7459 65.38C91.1899 65.128 91.5199 64.804 91.7359 64.408C91.9639 64 92.0779 63.58 92.0779 63.148C92.0779 62.728 91.9699 62.332 91.7539 61.96C91.5379 61.576 91.2079 61.264 90.7639 61.024C90.3319 60.772 89.7859 60.646 89.1259 60.646C88.4659 60.646 87.9139 60.772 87.4699 61.024C87.0379 61.264 86.7139 61.576 86.4979 61.96C86.2819 62.332 86.1739 62.728 86.1739 63.148C86.1739 63.58 86.2819 64 86.4979 64.408C86.7259 64.804 87.0559 65.128 87.4879 65.38C87.9319 65.632 88.4779 65.758 89.1259 65.758ZM99.7781 53.68V67H98.0501V56.668L95.5481 56.686V55.678L95.9981 55.534C96.6341 55.33 97.1441 55.108 97.5281 54.868C97.9241 54.628 98.2901 54.298 98.6261 53.878L98.7881 53.68H99.7781ZM107.604 67.18C106.824 67.18 106.08 67.03 105.372 66.73C104.676 66.43 104.106 65.974 103.662 65.362C103.23 64.738 103.014 63.952 103.014 63.004H104.688C104.688 63.616 104.826 64.12 105.102 64.516C105.39 64.912 105.756 65.206 106.2 65.398C106.656 65.59 107.124 65.686 107.604 65.686C108.12 65.686 108.594 65.59 109.026 65.398C109.458 65.194 109.806 64.9 110.07 64.516C110.334 64.132 110.466 63.67 110.466 63.13C110.466 62.422 110.232 61.864 109.764 61.456C109.296 61.036 108.672 60.826 107.892 60.826H106.092V59.44H107.892C108.54 59.44 109.092 59.248 109.548 58.864C110.016 58.48 110.25 57.958 110.25 57.298C110.25 56.818 110.124 56.41 109.872 56.074C109.632 55.726 109.308 55.456 108.9 55.264C108.504 55.072 108.072 54.976 107.604 54.976C107.16 54.976 106.728 55.078 106.308 55.282C105.9 55.474 105.564 55.768 105.3 56.164C105.036 56.56 104.904 57.064 104.904 57.676H103.266C103.266 56.74 103.476 55.966 103.896 55.354C104.328 54.73 104.874 54.268 105.534 53.968C106.206 53.656 106.908 53.5 107.64 53.5C108.384 53.5 109.08 53.65 109.728 53.95C110.388 54.238 110.922 54.658 111.33 55.21C111.738 55.75 111.942 56.398 111.942 57.154C111.942 57.874 111.762 58.486 111.402 58.99C111.042 59.482 110.586 59.836 110.034 60.052V60.142C110.67 60.358 111.192 60.724 111.6 61.24C112.008 61.756 112.212 62.404 112.212 63.184C112.212 64.012 111.996 64.726 111.564 65.326C111.132 65.926 110.568 66.388 109.872 66.712C109.176 67.024 108.42 67.18 107.604 67.18ZM119.243 67V65.758L122.159 63.058C122.975 62.302 123.689 61.642 124.301 61.078C124.925 60.502 125.411 59.944 125.759 59.404C126.107 58.864 126.281 58.27 126.281 57.622C126.281 57.082 126.149 56.626 125.885 56.254C125.633 55.882 125.303 55.6 124.895 55.408C124.499 55.204 124.085 55.102 123.653 55.102C123.089 55.102 122.627 55.198 122.267 55.39C121.907 55.582 121.631 55.822 121.439 56.11C121.247 56.386 121.109 56.668 121.025 56.956C120.941 57.232 120.893 57.466 120.881 57.658C120.869 57.85 120.863 57.946 120.863 57.946H119.171C119.171 57.946 119.177 57.838 119.189 57.622C119.201 57.406 119.243 57.13 119.315 56.794C119.399 56.458 119.531 56.104 119.711 55.732C119.891 55.348 120.143 54.988 120.467 54.652C120.803 54.316 121.229 54.04 121.745 53.824C122.273 53.608 122.915 53.5 123.671 53.5C124.439 53.5 125.153 53.662 125.813 53.986C126.485 54.298 127.025 54.76 127.433 55.372C127.841 55.972 128.045 56.71 128.045 57.586C128.045 58.39 127.841 59.122 127.433 59.782C127.037 60.43 126.509 61.066 125.849 61.69C125.189 62.314 124.469 62.986 123.689 63.706L121.853 65.398H128.333V67H119.243ZM135.36 67.18C134.58 67.18 133.836 67.03 133.128 66.73C132.432 66.43 131.862 65.974 131.418 65.362C130.986 64.738 130.77 63.952 130.77 63.004H132.444C132.444 63.616 132.582 64.12 132.858 64.516C133.146 64.912 133.512 65.206 133.956 65.398C134.412 65.59 134.88 65.686 135.36 65.686C135.876 65.686 136.35 65.59 136.782 65.398C137.214 65.194 137.562 64.9 137.826 64.516C138.09 64.132 138.222 63.67 138.222 63.13C138.222 62.422 137.988 61.864 137.52 61.456C137.052 61.036 136.428 60.826 135.648 60.826H133.848V59.44H135.648C136.296 59.44 136.848 59.248 137.304 58.864C137.772 58.48 138.006 57.958 138.006 57.298C138.006 56.818 137.88 56.41 137.628 56.074C137.388 55.726 137.064 55.456 136.656 55.264C136.26 55.072 135.828 54.976 135.36 54.976C134.916 54.976 134.484 55.078 134.064 55.282C133.656 55.474 133.32 55.768 133.056 56.164C132.792 56.56 132.66 57.064 132.66 57.676H131.022C131.022 56.74 131.232 55.966 131.652 55.354C132.084 54.73 132.63 54.268 133.29 53.968C133.962 53.656 134.664 53.5 135.396 53.5C136.14 53.5 136.836 53.65 137.484 53.95C138.144 54.238 138.678 54.658 139.086 55.21C139.494 55.75 139.698 56.398 139.698 57.154C139.698 57.874 139.518 58.486 139.158 58.99C138.798 59.482 138.342 59.836 137.79 60.052V60.142C138.426 60.358 138.948 60.724 139.356 61.24C139.764 61.756 139.968 62.404 139.968 63.184C139.968 64.012 139.752 64.726 139.32 65.326C138.888 65.926 138.324 66.388 137.628 66.712C136.932 67.024 136.176 67.18 135.36 67.18ZM146.999 67V65.758L149.915 63.058C150.731 62.302 151.445 61.642 152.057 61.078C152.681 60.502 153.167 59.944 153.515 59.404C153.863 58.864 154.037 58.27 154.037 57.622C154.037 57.082 153.905 56.626 153.641 56.254C153.389 55.882 153.059 55.6 152.651 55.408C152.255 55.204 151.841 55.102 151.409 55.102C150.845 55.102 150.383 55.198 150.023 55.39C149.663 55.582 149.387 55.822 149.195 56.11C149.003 56.386 148.865 56.668 148.781 56.956C148.697 57.232 148.649 57.466 148.637 57.658C148.625 57.85 148.619 57.946 148.619 57.946H146.927C146.927 57.946 146.933 57.838 146.945 57.622C146.957 57.406 146.999 57.13 147.071 56.794C147.155 56.458 147.287 56.104 147.467 55.732C147.647 55.348 147.899 54.988 148.223 54.652C148.559 54.316 148.985 54.04 149.501 53.824C150.029 53.608 150.671 53.5 151.427 53.5C152.195 53.5 152.909 53.662 153.569 53.986C154.241 54.298 154.781 54.76 155.189 55.372C155.597 55.972 155.801 56.71 155.801 57.586C155.801 58.39 155.597 59.122 155.189 59.782C154.793 60.43 154.265 61.066 153.605 61.69C152.945 62.314 152.225 62.986 151.445 63.706L149.609 65.398H156.089V67H146.999ZM163.116 67.18C162.336 67.18 161.592 67.03 160.884 66.73C160.188 66.43 159.618 65.974 159.174 65.362C158.742 64.738 158.526 63.952 158.526 63.004H160.2C160.2 63.616 160.338 64.12 160.614 64.516C160.902 64.912 161.268 65.206 161.712 65.398C162.168 65.59 162.636 65.686 163.116 65.686C163.632 65.686 164.106 65.59 164.538 65.398C164.97 65.194 165.318 64.9 165.582 64.516C165.846 64.132 165.978 63.67 165.978 63.13C165.978 62.422 165.744 61.864 165.276 61.456C164.808 61.036 164.184 60.826 163.404 60.826H161.604V59.44H163.404C164.052 59.44 164.604 59.248 165.06 58.864C165.528 58.48 165.762 57.958 165.762 57.298C165.762 56.818 165.636 56.41 165.384 56.074C165.144 55.726 164.82 55.456 164.412 55.264C164.016 55.072 163.584 54.976 163.116 54.976C162.672 54.976 162.24 55.078 161.82 55.282C161.412 55.474 161.076 55.768 160.812 56.164C160.548 56.56 160.416 57.064 160.416 57.676H158.778C158.778 56.74 158.988 55.966 159.408 55.354C159.84 54.73 160.386 54.268 161.046 53.968C161.718 53.656 162.42 53.5 163.152 53.5C163.896 53.5 164.592 53.65 165.24 53.95C165.9 54.238 166.434 54.658 166.842 55.21C167.25 55.75 167.454 56.398 167.454 57.154C167.454 57.874 167.274 58.486 166.914 58.99C166.554 59.482 166.098 59.836 165.546 60.052V60.142C166.182 60.358 166.704 60.724 167.112 61.24C167.52 61.756 167.724 62.404 167.724 63.184C167.724 64.012 167.508 64.726 167.076 65.326C166.644 65.926 166.08 66.388 165.384 66.712C164.688 67.024 163.932 67.18 163.116 67.18ZM175.057 67.162C174.229 67.162 173.497 66.982 172.861 66.622C172.225 66.25 171.691 65.752 171.259 65.128C170.839 64.492 170.515 63.76 170.287 62.932C170.071 62.104 169.963 61.234 169.963 60.322C169.963 59.398 170.071 58.528 170.287 57.712C170.515 56.884 170.839 56.152 171.259 55.516C171.691 54.88 172.225 54.382 172.861 54.022C173.497 53.662 174.229 53.482 175.057 53.482C175.885 53.482 176.617 53.662 177.253 54.022C177.889 54.382 178.417 54.88 178.837 55.516C179.269 56.152 179.593 56.884 179.809 57.712C180.037 58.528 180.151 59.398 180.151 60.322C180.151 61.234 180.037 62.104 179.809 62.932C179.593 63.76 179.269 64.492 178.837 65.128C178.417 65.752 177.889 66.25 177.253 66.622C176.617 66.982 175.885 67.162 175.057 67.162ZM175.057 65.542C176.005 65.542 176.785 65.104 177.397 64.228C178.021 63.34 178.333 62.038 178.333 60.322C178.333 58.606 178.021 57.31 177.397 56.434C176.785 55.558 176.005 55.12 175.057 55.12C174.109 55.12 173.323 55.558 172.699 56.434C172.087 57.31 171.781 58.606 171.781 60.322C171.781 62.026 172.087 63.322 172.699 64.21C173.323 65.098 174.109 65.542 175.057 65.542ZM187.041 53.5C187.893 53.5 188.631 53.662 189.255 53.986C189.891 54.31 190.413 54.76 190.821 55.336C191.229 55.9 191.529 56.548 191.721 57.28C191.925 58 192.027 58.768 192.027 59.584C192.027 60.244 191.955 60.928 191.811 61.636C191.667 62.344 191.439 63.028 191.127 63.688C190.827 64.348 190.419 64.942 189.903 65.47C189.399 65.986 188.781 66.4 188.049 66.712C187.329 67.024 186.483 67.18 185.511 67.18C185.139 67.18 184.791 67.156 184.467 67.108C184.143 67.06 183.885 67.018 183.693 66.982C183.501 66.934 183.405 66.91 183.405 66.91V65.29C183.405 65.29 183.513 65.314 183.729 65.362C183.945 65.398 184.215 65.44 184.539 65.488C184.875 65.536 185.211 65.56 185.547 65.56C186.279 65.56 186.903 65.452 187.419 65.236C187.947 65.008 188.385 64.714 188.733 64.354C189.093 63.982 189.375 63.586 189.579 63.166C189.795 62.734 189.951 62.314 190.047 61.906C190.143 61.486 190.197 61.126 190.209 60.826C190.125 60.97 189.957 61.168 189.705 61.42C189.453 61.672 189.099 61.9 188.643 62.104C188.187 62.308 187.605 62.41 186.897 62.41C185.925 62.41 185.109 62.2 184.449 61.78C183.801 61.348 183.309 60.796 182.973 60.124C182.649 59.44 182.487 58.732 182.487 58C182.487 57.244 182.655 56.524 182.991 55.84C183.327 55.156 183.831 54.598 184.503 54.166C185.187 53.722 186.033 53.5 187.041 53.5ZM187.077 55.012C186.597 55.012 186.135 55.12 185.691 55.336C185.259 55.552 184.899 55.876 184.611 56.308C184.335 56.74 184.197 57.286 184.197 57.946C184.197 58.606 184.335 59.158 184.611 59.602C184.899 60.034 185.259 60.358 185.691 60.574C186.135 60.79 186.597 60.898 187.077 60.898C187.557 60.898 188.013 60.79 188.445 60.574C188.889 60.358 189.249 60.034 189.525 59.602C189.813 59.158 189.957 58.606 189.957 57.946C189.957 57.286 189.813 56.74 189.525 56.308C189.249 55.876 188.889 55.552 188.445 55.336C188.013 55.12 187.557 55.012 187.077 55.012Z" fill="#262626"/>
<path fill-rule="evenodd" clip-rule="evenodd" d="M11.5397 117.851C11.57 117.869 11.5937 117.882 11.6105 117.892L11.6384 117.907C11.8613 118.029 12.1378 118.029 12.3608 117.907L12.3895 117.892C12.4063 117.882 12.43 117.869 12.4603 117.851C12.5207 117.816 12.607 117.765 12.7155 117.698C12.9325 117.565 13.2388 117.368 13.6046 117.109C14.3351 116.593 15.3097 115.827 16.2865 114.827C18.2307 112.837 20.25 109.846 20.25 106C20.25 101.444 16.5563 97.75 12 97.75C7.44365 97.75 3.75 101.444 3.75 106C3.75 109.846 5.76932 112.837 7.71346 114.827C8.69025 115.827 9.66491 116.593 10.3954 117.109C10.7612 117.368 11.0675 117.565 11.2845 117.698C11.393 117.765 11.4793 117.816 11.5397 117.851ZM12 109C13.6569 109 15 107.657 15 106C15 104.343 13.6569 103 12 103C10.3431 103 9 104.343 9 106C9 107.657 10.3431 109 12 109Z" fill="#262626"/>
<path d="M35.904 114.18C35.136 114.18 34.476 114.084 33.924 113.892C33.384 113.688 32.934 113.43 32.574 113.118C32.214 112.794 31.926 112.458 31.71 112.11C31.494 111.762 31.332 111.432 31.224 111.12C31.116 110.796 31.044 110.538 31.008 110.346C30.984 110.142 30.972 110.04 30.972 110.04H32.772C32.772 110.04 32.79 110.124 32.826 110.292C32.862 110.46 32.934 110.67 33.042 110.922C33.162 111.174 33.336 111.432 33.564 111.696C33.792 111.948 34.098 112.158 34.482 112.326C34.866 112.494 35.352 112.578 35.94 112.578C36.828 112.578 37.53 112.368 38.046 111.948C38.562 111.516 38.82 110.958 38.82 110.274C38.82 109.686 38.622 109.23 38.226 108.906C37.842 108.582 37.29 108.33 36.57 108.15L34.806 107.718C34.182 107.562 33.6 107.346 33.06 107.07C32.532 106.782 32.106 106.41 31.782 105.954C31.47 105.486 31.314 104.904 31.314 104.208C31.314 103.428 31.506 102.762 31.89 102.21C32.274 101.658 32.796 101.238 33.456 100.95C34.116 100.65 34.866 100.5 35.706 100.5C36.522 100.5 37.2 100.626 37.74 100.878C38.28 101.13 38.712 101.442 39.036 101.814C39.36 102.174 39.6 102.54 39.756 102.912C39.912 103.272 40.014 103.578 40.062 103.83C40.11 104.082 40.134 104.208 40.134 104.208H38.406C38.406 104.208 38.382 104.1 38.334 103.884C38.286 103.668 38.172 103.422 37.992 103.146C37.812 102.858 37.536 102.606 37.164 102.39C36.792 102.174 36.288 102.066 35.652 102.066C34.788 102.066 34.134 102.27 33.69 102.678C33.258 103.086 33.042 103.554 33.042 104.082C33.042 104.562 33.216 104.952 33.564 105.252C33.912 105.54 34.392 105.762 35.004 105.918L36.912 106.386C37.596 106.554 38.214 106.8 38.766 107.124C39.318 107.436 39.756 107.844 40.08 108.348C40.404 108.84 40.566 109.446 40.566 110.166C40.566 110.886 40.386 111.552 40.026 112.164C39.678 112.776 39.156 113.268 38.46 113.64C37.776 114 36.924 114.18 35.904 114.18ZM47.2038 114.18C46.1838 114.18 45.3258 113.946 44.6298 113.478C43.9338 112.998 43.4058 112.38 43.0458 111.624C42.6858 110.868 42.5058 110.07 42.5058 109.23C42.5058 108.378 42.6858 107.58 43.0458 106.836C43.4058 106.08 43.9338 105.468 44.6298 105C45.3258 104.52 46.1838 104.28 47.2038 104.28C48.2238 104.28 49.0818 104.52 49.7778 105C50.4738 105.468 51.0018 106.08 51.3618 106.836C51.7218 107.58 51.9018 108.378 51.9018 109.23C51.9018 110.07 51.7218 110.868 51.3618 111.624C51.0018 112.38 50.4738 112.998 49.7778 113.478C49.0818 113.946 48.2238 114.18 47.2038 114.18ZM47.2038 112.686C47.8518 112.686 48.3918 112.524 48.8238 112.2C49.2678 111.864 49.5978 111.432 49.8138 110.904C50.0418 110.376 50.1558 109.818 50.1558 109.23C50.1558 108.63 50.0418 108.072 49.8138 107.556C49.5978 107.028 49.2678 106.602 48.8238 106.278C48.3918 105.942 47.8518 105.774 47.2038 105.774C46.5678 105.774 46.0278 105.942 45.5838 106.278C45.1398 106.602 44.8038 107.028 44.5758 107.556C44.3598 108.072 44.2518 108.63 44.2518 109.23C44.2518 109.818 44.3598 110.376 44.5758 110.904C44.8038 111.432 45.1398 111.864 45.5838 112.2C46.0278 112.524 46.5678 112.686 47.2038 112.686ZM54.2346 114V104.46H55.9446V105.846H56.0166C56.1126 105.666 56.2626 105.456 56.4666 105.216C56.6706 104.964 56.9466 104.748 57.2946 104.568C57.6546 104.376 58.1046 104.28 58.6446 104.28C59.3526 104.28 59.9466 104.454 60.4266 104.802C60.9186 105.138 61.2846 105.594 61.5246 106.17H61.5426C61.8066 105.642 62.1786 105.198 62.6586 104.838C63.1506 104.466 63.7866 104.28 64.5666 104.28C65.5986 104.28 66.3906 104.634 66.9426 105.342C67.5066 106.038 67.7886 106.938 67.7886 108.042V114H66.0786V108.132C66.0786 107.424 65.9106 106.854 65.5746 106.422C65.2386 105.978 64.7526 105.756 64.1166 105.756C63.5646 105.756 63.1206 105.906 62.7846 106.206C62.4606 106.506 62.2266 106.878 62.0826 107.322C61.9386 107.766 61.8666 108.21 61.8666 108.654V114H60.1566V108.132C60.1566 107.424 59.9886 106.854 59.6526 106.422C59.3286 105.978 58.8426 105.756 58.1946 105.756C57.6426 105.756 57.1986 105.906 56.8626 106.206C56.5386 106.506 56.3046 106.884 56.1606 107.34C56.0166 107.784 55.9446 108.222 55.9446 108.654V114H54.2346ZM74.639 114.18C73.859 114.18 73.181 114.042 72.605 113.766C72.041 113.478 71.573 113.094 71.201 112.614C70.841 112.134 70.571 111.606 70.391 111.03C70.211 110.442 70.121 109.842 70.121 109.23C70.121 108.63 70.205 108.036 70.373 107.448C70.553 106.86 70.823 106.326 71.183 105.846C71.555 105.366 72.017 104.988 72.569 104.712C73.133 104.424 73.799 104.28 74.567 104.28C75.383 104.28 76.103 104.466 76.727 104.838C77.351 105.21 77.843 105.762 78.203 106.494C78.563 107.226 78.743 108.144 78.743 109.248V109.752H71.849C71.885 110.292 72.011 110.79 72.227 111.246C72.455 111.69 72.773 112.05 73.181 112.326C73.589 112.59 74.075 112.722 74.639 112.722C75.131 112.722 75.527 112.644 75.827 112.488C76.139 112.32 76.385 112.128 76.565 111.912C76.745 111.696 76.865 111.51 76.925 111.354C76.997 111.186 77.033 111.102 77.033 111.102H78.635C78.635 111.102 78.605 111.21 78.545 111.426C78.485 111.63 78.377 111.882 78.221 112.182C78.065 112.482 77.837 112.788 77.537 113.1C77.237 113.4 76.853 113.658 76.385 113.874C75.917 114.078 75.335 114.18 74.639 114.18ZM71.867 108.42H77.069C77.045 107.796 76.913 107.292 76.673 106.908C76.433 106.512 76.127 106.218 75.755 106.026C75.383 105.834 74.987 105.738 74.567 105.738C73.811 105.738 73.193 105.984 72.713 106.476C72.233 106.956 71.951 107.604 71.867 108.42ZM83.1728 114L80.0948 104.46H81.8408L84.1088 111.696L86.4848 104.46H88.1048L90.4628 111.696L92.7488 104.46H94.4948L91.3988 114H89.5628L87.2948 106.962L85.0268 114H83.1728ZM96.567 114V100.32H98.277V105.846H98.385C98.469 105.702 98.607 105.504 98.799 105.252C99.003 105 99.291 104.778 99.663 104.586C100.035 104.382 100.503 104.28 101.067 104.28C101.763 104.28 102.357 104.442 102.849 104.766C103.341 105.078 103.713 105.504 103.965 106.044C104.229 106.584 104.361 107.19 104.361 107.862V114H102.651V107.97C102.651 107.334 102.471 106.806 102.111 106.386C101.763 105.966 101.253 105.756 100.581 105.756C100.041 105.756 99.603 105.894 99.267 106.17C98.931 106.434 98.679 106.788 98.511 107.232C98.355 107.664 98.277 108.126 98.277 108.618V114H96.567ZM111.219 114.18C110.439 114.18 109.761 114.042 109.185 113.766C108.621 113.478 108.153 113.094 107.781 112.614C107.421 112.134 107.151 111.606 106.971 111.03C106.791 110.442 106.701 109.842 106.701 109.23C106.701 108.63 106.785 108.036 106.953 107.448C107.133 106.86 107.403 106.326 107.763 105.846C108.135 105.366 108.597 104.988 109.149 104.712C109.713 104.424 110.379 104.28 111.147 104.28C111.963 104.28 112.683 104.466 113.307 104.838C113.931 105.21 114.423 105.762 114.783 106.494C115.143 107.226 115.323 108.144 115.323 109.248V109.752H108.429C108.465 110.292 108.591 110.79 108.807 111.246C109.035 111.69 109.353 112.05 109.761 112.326C110.169 112.59 110.655 112.722 111.219 112.722C111.711 112.722 112.107 112.644 112.407 112.488C112.719 112.32 112.965 112.128 113.145 111.912C113.325 111.696 113.445 111.51 113.505 111.354C113.577 111.186 113.613 111.102 113.613 111.102H115.215C115.215 111.102 115.185 111.21 115.125 111.426C115.065 111.63 114.957 111.882 114.801 112.182C114.645 112.482 114.417 112.788 114.117 113.1C113.817 113.4 113.433 113.658 112.965 113.874C112.497 114.078 111.915 114.18 111.219 114.18ZM108.447 108.42H113.649C113.625 107.796 113.493 107.292 113.253 106.908C113.013 106.512 112.707 106.218 112.335 106.026C111.963 105.834 111.567 105.738 111.147 105.738C110.391 105.738 109.773 105.984 109.293 106.476C108.813 106.956 108.531 107.604 108.447 108.42ZM117.656 114V104.46H119.366V105.648H119.438C119.642 105.288 119.942 104.97 120.338 104.694C120.734 104.418 121.292 104.28 122.012 104.28C122.216 104.28 122.402 104.292 122.57 104.316C122.738 104.328 122.822 104.334 122.822 104.334V105.972C122.822 105.972 122.726 105.966 122.534 105.954C122.354 105.93 122.162 105.918 121.958 105.918C121.13 105.918 120.488 106.158 120.032 106.638C119.588 107.106 119.366 107.874 119.366 108.942V114H117.656ZM128.323 114.18C127.543 114.18 126.865 114.042 126.289 113.766C125.725 113.478 125.257 113.094 124.885 112.614C124.525 112.134 124.255 111.606 124.075 111.03C123.895 110.442 123.805 109.842 123.805 109.23C123.805 108.63 123.889 108.036 124.057 107.448C124.237 106.86 124.507 106.326 124.867 105.846C125.239 105.366 125.701 104.988 126.253 104.712C126.817 104.424 127.483 104.28 128.251 104.28C129.067 104.28 129.787 104.466 130.411 104.838C131.035 105.21 131.527 105.762 131.887 106.494C132.247 107.226 132.427 108.144 132.427 109.248V109.752H125.533C125.569 110.292 125.695 110.79 125.911 111.246C126.139 111.69 126.457 112.05 126.865 112.326C127.273 112.59 127.759 112.722 128.323 112.722C128.815 112.722 129.211 112.644 129.511 112.488C129.823 112.32 130.069 112.128 130.249 111.912C130.429 111.696 130.549 111.51 130.609 111.354C130.681 111.186 130.717 111.102 130.717 111.102H132.319C132.319 111.102 132.289 111.21 132.229 111.426C132.169 111.63 132.061 111.882 131.905 112.182C131.749 112.482 131.521 112.788 131.221 113.1C130.921 113.4 130.537 113.658 130.069 113.874C129.601 114.078 129.019 114.18 128.323 114.18ZM125.551 108.42H130.753C130.729 107.796 130.597 107.292 130.357 106.908C130.117 106.512 129.811 106.218 129.439 106.026C129.067 105.834 128.671 105.738 128.251 105.738C127.495 105.738 126.877 105.984 126.397 106.476C125.917 106.956 125.635 107.604 125.551 108.42ZM140.024 102.642C139.7 102.642 139.43 102.534 139.214 102.318C139.01 102.102 138.908 101.844 138.908 101.544C138.908 101.232 139.01 100.968 139.214 100.752C139.43 100.536 139.7 100.428 140.024 100.428C140.336 100.428 140.6 100.536 140.816 100.752C141.032 100.968 141.14 101.232 141.14 101.544C141.14 101.844 141.032 102.102 140.816 102.318C140.6 102.534 140.336 102.642 140.024 102.642ZM139.178 114V104.46H140.888V114H139.178ZM143.655 114V104.46H145.365V105.846H145.473C145.557 105.702 145.695 105.504 145.887 105.252C146.091 105 146.379 104.778 146.751 104.586C147.123 104.382 147.591 104.28 148.155 104.28C148.851 104.28 149.445 104.442 149.937 104.766C150.429 105.078 150.801 105.504 151.053 106.044C151.317 106.584 151.449 107.19 151.449 107.862V114H149.739V107.97C149.739 107.334 149.559 106.806 149.199 106.386C148.851 105.966 148.341 105.756 147.669 105.756C147.129 105.756 146.691 105.894 146.355 106.17C146.019 106.434 145.767 106.788 145.599 107.232C145.443 107.664 145.365 108.126 145.365 108.618V114H143.655ZM162.171 114.18C161.187 114.18 160.443 113.928 159.939 113.424C159.447 112.92 159.201 112.212 159.201 111.3V105.864H157.491V104.46H159.201V102.066H160.911V104.46H163.233V105.864H160.911V111.3C160.911 111.78 161.043 112.134 161.307 112.362C161.571 112.578 161.955 112.686 162.459 112.686C162.723 112.686 162.975 112.668 163.215 112.632C163.455 112.596 163.575 112.578 163.575 112.578V114.036C163.575 114.036 163.437 114.06 163.161 114.108C162.885 114.156 162.555 114.18 162.171 114.18ZM166.001 114V100.32H167.711V105.846H167.819C167.903 105.702 168.041 105.504 168.233 105.252C168.437 105 168.725 104.778 169.097 104.586C169.469 104.382 169.937 104.28 170.501 104.28C171.197 104.28 171.791 104.442 172.283 104.766C172.775 105.078 173.147 105.504 173.399 106.044C173.663 106.584 173.795 107.19 173.795 107.862V114H172.085V107.97C172.085 107.334 171.905 106.806 171.545 106.386C171.197 105.966 170.687 105.756 170.015 105.756C169.475 105.756 169.037 105.894 168.701 106.17C168.365 106.434 168.113 106.788 167.945 107.232C167.789 107.664 167.711 108.126 167.711 108.618V114H166.001ZM180.653 114.18C179.873 114.18 179.195 114.042 178.619 113.766C178.055 113.478 177.587 113.094 177.215 112.614C176.855 112.134 176.585 111.606 176.405 111.03C176.225 110.442 176.135 109.842 176.135 109.23C176.135 108.63 176.219 108.036 176.387 107.448C176.567 106.86 176.837 106.326 177.197 105.846C177.569 105.366 178.031 104.988 178.583 104.712C179.147 104.424 179.813 104.28 180.581 104.28C181.397 104.28 182.117 104.466 182.741 104.838C183.365 105.21 183.857 105.762 184.217 106.494C184.577 107.226 184.757 108.144 184.757 109.248V109.752H177.863C177.899 110.292 178.025 110.79 178.241 111.246C178.469 111.69 178.787 112.05 179.195 112.326C179.603 112.59 180.089 112.722 180.653 112.722C181.145 112.722 181.541 112.644 181.841 112.488C182.153 112.32 182.399 112.128 182.579 111.912C182.759 111.696 182.879 111.51 182.939 111.354C183.011 111.186 183.047 111.102 183.047 111.102H184.649C184.649 111.102 184.619 111.21 184.559 111.426C184.499 111.63 184.391 111.882 184.235 112.182C184.079 112.482 183.851 112.788 183.551 113.1C183.251 113.4 182.867 113.658 182.399 113.874C181.931 114.078 181.349 114.18 180.653 114.18ZM177.881 108.42H183.083C183.059 107.796 182.927 107.292 182.687 106.908C182.447 106.512 182.141 106.218 181.769 106.026C181.397 105.834 181.001 105.738 180.581 105.738C179.825 105.738 179.207 105.984 178.727 106.476C178.247 106.956 177.965 107.604 177.881 108.42ZM194.245 114L190.699 100.68H192.517L195.271 111.408L198.169 100.68H199.897L202.795 111.372L205.531 100.68H207.349L203.803 114H201.787L199.033 103.758L196.261 114H194.245ZM213.036 114.18C212.016 114.18 211.158 113.946 210.462 113.478C209.766 112.998 209.238 112.38 208.878 111.624C208.518 110.868 208.338 110.07 208.338 109.23C208.338 108.378 208.518 107.58 208.878 106.836C209.238 106.08 209.766 105.468 210.462 105C211.158 104.52 212.016 104.28 213.036 104.28C214.056 104.28 214.914 104.52 215.61 105C216.306 105.468 216.834 106.08 217.194 106.836C217.554 107.58 217.734 108.378 217.734 109.23C217.734 110.07 217.554 110.868 217.194 111.624C216.834 112.38 216.306 112.998 215.61 113.478C214.914 113.946 214.056 114.18 213.036 114.18ZM213.036 112.686C213.684 112.686 214.224 112.524 214.656 112.2C215.1 111.864 215.43 111.432 215.646 110.904C215.874 110.376 215.988 109.818 215.988 109.23C215.988 108.63 215.874 108.072 215.646 107.556C215.43 107.028 215.1 106.602 214.656 106.278C214.224 105.942 213.684 105.774 213.036 105.774C212.4 105.774 211.86 105.942 211.416 106.278C210.972 106.602 210.636 107.028 210.408 107.556C210.192 108.072 210.084 108.63 210.084 109.23C210.084 109.818 210.192 110.376 210.408 110.904C210.636 111.432 210.972 111.864 211.416 112.2C211.86 112.524 212.4 112.686 213.036 112.686ZM220.067 114V104.46H221.777V105.648H221.849C222.053 105.288 222.353 104.97 222.749 104.694C223.145 104.418 223.703 104.28 224.423 104.28C224.627 104.28 224.813 104.292 224.981 104.316C225.149 104.328 225.233 104.334 225.233 104.334V105.972C225.233 105.972 225.137 105.966 224.945 105.954C224.765 105.93 224.573 105.918 224.369 105.918C223.541 105.918 222.899 106.158 222.443 106.638C221.999 107.106 221.777 107.874 221.777 108.942V114H220.067ZM227.295 114L227.313 100.32H229.005V114H227.295ZM235.843 114.18C235.123 114.18 234.493 114.042 233.953 113.766C233.413 113.478 232.963 113.1 232.603 112.632C232.243 112.152 231.973 111.618 231.793 111.03C231.613 110.442 231.523 109.842 231.523 109.23C231.523 108.618 231.613 108.018 231.793 107.43C231.973 106.842 232.243 106.314 232.603 105.846C232.963 105.366 233.413 104.988 233.953 104.712C234.493 104.424 235.123 104.28 235.843 104.28C236.443 104.28 236.947 104.376 237.355 104.568C237.763 104.76 238.093 104.988 238.345 105.252C238.597 105.504 238.789 105.744 238.921 105.972H239.029V100.32H240.739V114H239.029V112.488H238.921C238.789 112.716 238.597 112.962 238.345 113.226C238.093 113.49 237.763 113.718 237.355 113.91C236.947 114.09 236.443 114.18 235.843 114.18ZM236.131 112.722C236.767 112.722 237.295 112.554 237.715 112.218C238.147 111.87 238.465 111.432 238.669 110.904C238.885 110.364 238.993 109.806 238.993 109.23C238.993 108.642 238.885 108.084 238.669 107.556C238.465 107.028 238.147 106.596 237.715 106.26C237.295 105.912 236.767 105.738 236.131 105.738C235.495 105.738 234.961 105.912 234.529 106.26C234.097 106.596 233.773 107.028 233.557 107.556C233.353 108.084 233.251 108.642 233.251 109.23C233.251 109.806 233.353 110.364 233.557 110.904C233.773 111.432 234.097 111.87 234.529 112.218C234.961 112.554 235.495 112.722 236.131 112.722Z" fill="#262626"/>
</svg>
